<svg width="28" height="28" viewBox="0 0 28 28" fill="none" xmlns="http://www.w3.org/2000/svg">
<g clip-path="url(#clip0_1_4078)">
<path d="M24.3728 2.34025L24.4965 2.33325L24.6482 2.34259L24.7532 2.36125L24.8967 2.40209L25.0215 2.45575L25.1382 2.52225L25.2432 2.60042L25.3388 2.68792L25.3995 2.75675L25.4952 2.89209L25.5558 3.00409C25.6107 3.12075 25.6457 3.24442 25.6608 3.37275L25.6667 3.49642C25.6667 3.58392 25.6573 3.67025 25.6387 3.75309L25.5978 3.89659L17.9772 24.9864C17.8327 25.3009 17.601 25.5673 17.3097 25.7541C17.0183 25.9408 16.6794 26.04 16.3333 26.0399C16.0216 26.0409 15.715 25.9612 15.4433 25.8084C15.1716 25.6557 14.944 25.4352 14.7828 25.1684L14.707 25.0203L10.7963 17.2013L3.01467 13.3093C2.72674 13.1776 2.47843 12.9726 2.29457 12.7148C2.11072 12.4571 1.99776 12.1555 1.96701 11.8404L1.96001 11.6666C1.96001 11.0133 2.31117 10.4159 2.94117 10.0683L3.10451 9.98659L24.1243 2.39625L24.248 2.36125L24.3728 2.34025Z" fill="white"/>
</g>
<defs>
<clipPath id="clip0_1_4078">
<rect width="28" height="28" fill="white"/>
</clipPath>
</defs>
</svg>
