<svg width="200" height="200" viewBox="0 0 200 200" fill="none" xmlns="http://www.w3.org/2000/svg">
<g clip-path="url(#clip0_1_321)">
<rect width="200" height="200" rx="100" fill="#B7B944"/>
<path d="M70.7128 63.6316C70.6806 62.6417 70.8482 61.6554 71.2054 60.7314C71.5627 59.8074 72.1025 58.9644 72.7926 58.2526C73.4828 57.5407 74.3093 56.9745 75.223 56.5876C76.1368 56.2006 77.1191 56.0008 78.1118 56H102.45C106.468 56 109.751 59.1973 109.829 63.216C110.001 71.8596 111.143 102.669 118.551 134.222H123.451C118.743 114.158 116.567 94.3973 115.562 80.4444H122.903C127.342 80.4444 130.522 84.2236 130.4 88.2422C130.233 93.9182 130.694 109.92 138.96 134.222H144.1C145.4 134.222 146.646 134.737 147.565 135.654C148.484 136.571 149 137.814 149 139.111C149 141.774 149 144 149 144H51C51 144 51.0001 141.774 51.0001 139.111C51.0001 137.814 51.5164 136.571 52.4353 135.654C53.3542 134.737 54.6005 134.222 55.9001 134.222H62.0594C71.1489 103.012 70.9921 72.4511 70.7128 63.6316Z" fill="black" fill-opacity="0.7"/>
</g>
<defs>
<clipPath id="clip0_1_321">
<rect width="200" height="200" rx="100" fill="white"/>
</clipPath>
</defs>
</svg>
