<svg width="200" height="200" viewBox="0 0 200 200" fill="none" xmlns="http://www.w3.org/2000/svg">
<rect width="200" height="200" rx="100" fill="#B9B678"/>
<path d="M60.555 137.133L54 130.662L72.86 111.711C75.2367 109.323 76.8666 106.337 77.7498 102.753C78.633 99.1696 79.0731 93.6815 79.07 86.289C79.07 81.8209 80.0667 77.4298 82.06 73.1157C84.0533 68.8017 86.89 64.7957 90.57 61.098C97.5467 54.0876 105.252 50.1202 113.685 49.1958C122.118 48.2713 129.057 50.6209 134.5 56.2446C140.02 61.7913 142.32 68.8017 141.4 77.2757C140.48 85.7498 136.57 93.4535 129.67 100.387C125.99 104.085 122.003 106.935 117.71 108.938C113.417 110.941 109.047 111.942 104.6 111.942C97.1633 111.942 91.72 112.366 88.27 113.213C84.82 114.061 81.8683 115.717 79.415 118.182L60.555 137.133ZM92.18 98.5379C95.7833 102.082 100.652 103.391 106.785 102.467C112.918 101.542 118.4 98.6534 123.23 93.8001C128.137 88.8698 131.07 83.3416 132.03 77.2156C132.99 71.0896 131.666 66.2949 128.06 62.8313C124.38 59.1335 119.568 57.7469 113.625 58.6713C107.682 59.5957 102.22 62.5231 97.24 67.4535C92.41 72.3068 89.4767 77.7965 88.4402 83.9224C87.4037 90.0484 88.6503 94.9202 92.18 98.5379ZM127.6 151C122.54 151 118.208 149.19 114.605 145.569C111.002 141.948 109.2 137.596 109.2 132.511C109.2 127.427 111.002 123.074 114.605 119.453C118.208 115.833 122.54 114.022 127.6 114.022C132.66 114.022 136.992 115.833 140.595 119.453C144.198 123.074 146 127.427 146 132.511C146 137.596 144.198 141.948 140.595 145.569C136.992 149.19 132.66 151 127.6 151Z" fill="black" fill-opacity="0.7"/>
</svg>
